<mxfile host="app.diagrams.net" modified="2023-11-14T15:59:30.525Z" agent="Mozilla/5.0 (Macintosh; Intel Mac OS X 10_15_7) AppleWebKit/537.36 (KHTML, like Gecko) Chrome/103.0.0.0 Safari/537.36" etag="70ietPbDBPOXOkQv-I1K" version="21.7.2" type="github">
  <diagram id="C5RBs43oDa-KdzZeNtuy" name="Page-1">
    <mxGraphModel dx="1592" dy="605" grid="1" gridSize="10" guides="1" tooltips="1" connect="1" arrows="1" fold="1" page="1" pageScale="1" pageWidth="827" pageHeight="1169" math="0" shadow="0">
      <root>
        <mxCell id="WIyWlLk6GJQsqaUBKTNV-0" />
        <mxCell id="WIyWlLk6GJQsqaUBKTNV-1" parent="WIyWlLk6GJQsqaUBKTNV-0" />
        <mxCell id="bx4wuyogf3lP6zrm6x-j-0" value="" style="rounded=0;html=1;jettySize=auto;orthogonalLoop=1;fontSize=11;endArrow=block;endFill=0;endSize=8;strokeWidth=1;shadow=0;labelBackgroundColor=none;edgeStyle=orthogonalEdgeStyle;" parent="WIyWlLk6GJQsqaUBKTNV-1" source="bx4wuyogf3lP6zrm6x-j-1" target="bx4wuyogf3lP6zrm6x-j-3" edge="1">
          <mxGeometry relative="1" as="geometry" />
        </mxCell>
        <mxCell id="bx4wuyogf3lP6zrm6x-j-1" value="存在数据流" style="rounded=1;whiteSpace=wrap;html=1;fontSize=12;glass=0;strokeWidth=1;shadow=0;" parent="WIyWlLk6GJQsqaUBKTNV-1" vertex="1">
          <mxGeometry x="540" y="40" width="120" height="40" as="geometry" />
        </mxCell>
        <mxCell id="bx4wuyogf3lP6zrm6x-j-2" value="否" style="edgeStyle=orthogonalEdgeStyle;rounded=0;html=1;jettySize=auto;orthogonalLoop=1;fontSize=11;endArrow=block;endFill=0;endSize=8;strokeWidth=1;shadow=0;labelBackgroundColor=none;exitX=1;exitY=0.5;exitDx=0;exitDy=0;entryX=0;entryY=0.5;entryDx=0;entryDy=0;" parent="WIyWlLk6GJQsqaUBKTNV-1" source="bx4wuyogf3lP6zrm6x-j-3" target="bx4wuyogf3lP6zrm6x-j-8" edge="1">
          <mxGeometry y="10" relative="1" as="geometry">
            <mxPoint as="offset" />
            <mxPoint x="820" y="180" as="targetPoint" />
            <Array as="points" />
          </mxGeometry>
        </mxCell>
        <mxCell id="bx4wuyogf3lP6zrm6x-j-3" value="是否存在高优流？" style="rhombus;whiteSpace=wrap;html=1;shadow=0;fontFamily=Helvetica;fontSize=12;align=center;strokeWidth=1;spacing=6;spacingTop=-4;" parent="WIyWlLk6GJQsqaUBKTNV-1" vertex="1">
          <mxGeometry x="550" y="140" width="100" height="80" as="geometry" />
        </mxCell>
        <mxCell id="bx4wuyogf3lP6zrm6x-j-4" value="高优流是否就绪" style="rhombus;whiteSpace=wrap;html=1;shadow=0;fontFamily=Helvetica;fontSize=12;align=center;strokeWidth=1;spacing=6;spacingTop=-4;" parent="WIyWlLk6GJQsqaUBKTNV-1" vertex="1">
          <mxGeometry x="550" y="310" width="100" height="80" as="geometry" />
        </mxCell>
        <mxCell id="bx4wuyogf3lP6zrm6x-j-5" value="是" style="edgeStyle=orthogonalEdgeStyle;rounded=0;html=1;jettySize=auto;orthogonalLoop=1;fontSize=11;endArrow=block;endFill=0;endSize=8;strokeWidth=1;shadow=0;labelBackgroundColor=none;exitX=0.5;exitY=1;exitDx=0;exitDy=0;entryX=0.5;entryY=0;entryDx=0;entryDy=0;" parent="WIyWlLk6GJQsqaUBKTNV-1" source="bx4wuyogf3lP6zrm6x-j-3" target="bx4wuyogf3lP6zrm6x-j-4" edge="1">
          <mxGeometry y="10" relative="1" as="geometry">
            <mxPoint as="offset" />
            <mxPoint x="820" y="260" as="targetPoint" />
            <mxPoint x="660" y="220" as="sourcePoint" />
            <Array as="points">
              <mxPoint x="600" y="280" />
              <mxPoint x="600" y="280" />
            </Array>
          </mxGeometry>
        </mxCell>
        <mxCell id="bx4wuyogf3lP6zrm6x-j-6" value="是" style="edgeStyle=orthogonalEdgeStyle;rounded=0;html=1;jettySize=auto;orthogonalLoop=1;fontSize=11;endArrow=block;endFill=0;endSize=8;strokeWidth=1;shadow=0;labelBackgroundColor=none;exitX=0.5;exitY=1;exitDx=0;exitDy=0;entryX=0.5;entryY=0;entryDx=0;entryDy=0;" parent="WIyWlLk6GJQsqaUBKTNV-1" source="bx4wuyogf3lP6zrm6x-j-4" target="bx4wuyogf3lP6zrm6x-j-7" edge="1">
          <mxGeometry y="10" relative="1" as="geometry">
            <mxPoint as="offset" />
            <mxPoint x="690" y="420" as="targetPoint" />
            <mxPoint x="610" y="260" as="sourcePoint" />
            <Array as="points" />
          </mxGeometry>
        </mxCell>
        <mxCell id="bx4wuyogf3lP6zrm6x-j-7" value="发送高优流，将该流调整成未就绪态" style="rounded=1;whiteSpace=wrap;html=1;fontSize=12;glass=0;strokeWidth=1;shadow=0;" parent="WIyWlLk6GJQsqaUBKTNV-1" vertex="1">
          <mxGeometry x="540" y="460" width="120" height="40" as="geometry" />
        </mxCell>
        <mxCell id="bx4wuyogf3lP6zrm6x-j-8" value="发送低优流，将该流调整成未就绪态" style="rounded=1;whiteSpace=wrap;html=1;fontSize=12;glass=0;strokeWidth=1;shadow=0;" parent="WIyWlLk6GJQsqaUBKTNV-1" vertex="1">
          <mxGeometry x="880" y="160" width="130" height="40" as="geometry" />
        </mxCell>
        <mxCell id="bx4wuyogf3lP6zrm6x-j-9" value="否" style="edgeStyle=orthogonalEdgeStyle;rounded=0;html=1;jettySize=auto;orthogonalLoop=1;fontSize=11;endArrow=block;endFill=0;endSize=8;strokeWidth=1;shadow=0;labelBackgroundColor=none;entryX=0;entryY=0.5;entryDx=0;entryDy=0;exitX=1;exitY=0.5;exitDx=0;exitDy=0;" parent="WIyWlLk6GJQsqaUBKTNV-1" source="bx4wuyogf3lP6zrm6x-j-4" target="bx4wuyogf3lP6zrm6x-j-10" edge="1">
          <mxGeometry x="-0.1304" y="20" relative="1" as="geometry">
            <mxPoint as="offset" />
            <mxPoint x="810" y="349.5" as="targetPoint" />
            <mxPoint x="660" y="349.5" as="sourcePoint" />
            <Array as="points" />
          </mxGeometry>
        </mxCell>
        <mxCell id="bx4wuyogf3lP6zrm6x-j-10" value="根据历史发送数据和带宽、ACK估计底层缓冲区" style="rounded=1;whiteSpace=wrap;html=1;fontSize=12;glass=0;strokeWidth=1;shadow=0;" parent="WIyWlLk6GJQsqaUBKTNV-1" vertex="1">
          <mxGeometry x="720" y="330" width="120" height="40" as="geometry" />
        </mxCell>
        <mxCell id="bx4wuyogf3lP6zrm6x-j-11" value="是否为空" style="rhombus;whiteSpace=wrap;html=1;shadow=0;fontFamily=Helvetica;fontSize=12;align=center;strokeWidth=1;spacing=6;spacingTop=-4;" parent="WIyWlLk6GJQsqaUBKTNV-1" vertex="1">
          <mxGeometry x="895" y="310" width="100" height="80" as="geometry" />
        </mxCell>
        <mxCell id="bx4wuyogf3lP6zrm6x-j-12" value="" style="edgeStyle=orthogonalEdgeStyle;rounded=0;html=1;jettySize=auto;orthogonalLoop=1;fontSize=11;endArrow=block;endFill=0;endSize=8;strokeWidth=1;shadow=0;labelBackgroundColor=none;exitX=1;exitY=0.5;exitDx=0;exitDy=0;entryX=0;entryY=0.5;entryDx=0;entryDy=0;" parent="WIyWlLk6GJQsqaUBKTNV-1" source="bx4wuyogf3lP6zrm6x-j-10" target="bx4wuyogf3lP6zrm6x-j-11" edge="1">
          <mxGeometry x="-0.1304" y="20" relative="1" as="geometry">
            <mxPoint as="offset" />
            <mxPoint x="990" y="350" as="targetPoint" />
            <mxPoint x="660" y="360" as="sourcePoint" />
            <Array as="points" />
          </mxGeometry>
        </mxCell>
        <mxCell id="bx4wuyogf3lP6zrm6x-j-13" value="是" style="edgeStyle=orthogonalEdgeStyle;rounded=0;html=1;jettySize=auto;orthogonalLoop=1;fontSize=11;endArrow=block;endFill=0;endSize=8;strokeWidth=1;shadow=0;labelBackgroundColor=none;entryX=0.5;entryY=1;entryDx=0;entryDy=0;exitX=0.5;exitY=0;exitDx=0;exitDy=0;" parent="WIyWlLk6GJQsqaUBKTNV-1" source="bx4wuyogf3lP6zrm6x-j-11" target="bx4wuyogf3lP6zrm6x-j-8" edge="1">
          <mxGeometry x="-0.1304" y="20" relative="1" as="geometry">
            <mxPoint as="offset" />
            <mxPoint x="785" y="360" as="targetPoint" />
            <mxPoint x="615" y="360" as="sourcePoint" />
            <Array as="points" />
          </mxGeometry>
        </mxCell>
        <mxCell id="bx4wuyogf3lP6zrm6x-j-14" value="否" style="edgeStyle=orthogonalEdgeStyle;rounded=0;html=1;jettySize=auto;orthogonalLoop=1;fontSize=11;endArrow=block;endFill=0;endSize=8;strokeWidth=1;shadow=0;labelBackgroundColor=none;exitX=0.5;exitY=1;exitDx=0;exitDy=0;entryX=0.5;entryY=0;entryDx=0;entryDy=0;" parent="WIyWlLk6GJQsqaUBKTNV-1" source="bx4wuyogf3lP6zrm6x-j-11" target="bx4wuyogf3lP6zrm6x-j-15" edge="1">
          <mxGeometry x="-0.4667" y="20" relative="1" as="geometry">
            <mxPoint as="offset" />
            <mxPoint x="1085" y="350" as="targetPoint" />
            <mxPoint x="1015" y="320" as="sourcePoint" />
            <Array as="points">
              <mxPoint x="945" y="500" />
            </Array>
          </mxGeometry>
        </mxCell>
        <mxCell id="bx4wuyogf3lP6zrm6x-j-15" value="计算流预计传输时间" style="rounded=1;whiteSpace=wrap;html=1;fontSize=12;glass=0;strokeWidth=1;shadow=0;" parent="WIyWlLk6GJQsqaUBKTNV-1" vertex="1">
          <mxGeometry x="885" y="460" width="120" height="40" as="geometry" />
        </mxCell>
        <mxCell id="bx4wuyogf3lP6zrm6x-j-16" value="" style="edgeStyle=orthogonalEdgeStyle;rounded=0;html=1;jettySize=auto;orthogonalLoop=1;fontSize=11;endArrow=block;endFill=0;endSize=8;strokeWidth=1;shadow=0;labelBackgroundColor=none;exitX=1;exitY=0.5;exitDx=0;exitDy=0;entryX=0.5;entryY=1;entryDx=0;entryDy=0;" parent="WIyWlLk6GJQsqaUBKTNV-1" source="bx4wuyogf3lP6zrm6x-j-15" target="bx4wuyogf3lP6zrm6x-j-17" edge="1">
          <mxGeometry x="-0.1304" y="20" relative="1" as="geometry">
            <mxPoint as="offset" />
            <mxPoint x="1105" y="360" as="targetPoint" />
            <mxPoint x="1005" y="360" as="sourcePoint" />
            <Array as="points" />
          </mxGeometry>
        </mxCell>
        <mxCell id="bx4wuyogf3lP6zrm6x-j-17" value="大于等于允许的截止时间" style="rhombus;whiteSpace=wrap;html=1;shadow=0;fontFamily=Helvetica;fontSize=12;align=center;strokeWidth=1;spacing=6;spacingTop=-4;" parent="WIyWlLk6GJQsqaUBKTNV-1" vertex="1">
          <mxGeometry x="1055" y="310" width="100" height="80" as="geometry" />
        </mxCell>
        <mxCell id="bx4wuyogf3lP6zrm6x-j-18" value="" style="edgeStyle=orthogonalEdgeStyle;rounded=0;html=1;jettySize=auto;orthogonalLoop=1;fontSize=11;endArrow=block;endFill=0;endSize=8;strokeWidth=1;shadow=0;labelBackgroundColor=none;entryX=0;entryY=0.5;entryDx=0;entryDy=0;exitX=1;exitY=0.5;exitDx=0;exitDy=0;" parent="WIyWlLk6GJQsqaUBKTNV-1" source="bx4wuyogf3lP6zrm6x-j-17" target="bx4wuyogf3lP6zrm6x-j-19" edge="1">
          <mxGeometry x="-0.1304" y="20" relative="1" as="geometry">
            <mxPoint as="offset" />
            <mxPoint x="1315" y="470" as="targetPoint" />
            <mxPoint x="1375" y="380" as="sourcePoint" />
            <Array as="points" />
          </mxGeometry>
        </mxCell>
        <mxCell id="bx4wuyogf3lP6zrm6x-j-19" value="pending低优流" style="rounded=1;whiteSpace=wrap;html=1;fontSize=12;glass=0;strokeWidth=1;shadow=0;" parent="WIyWlLk6GJQsqaUBKTNV-1" vertex="1">
          <mxGeometry x="1241" y="330" width="120" height="40" as="geometry" />
        </mxCell>
        <mxCell id="bx4wuyogf3lP6zrm6x-j-20" value="是" style="text;html=1;align=center;verticalAlign=middle;resizable=0;points=[];autosize=1;strokeColor=none;fillColor=none;" parent="WIyWlLk6GJQsqaUBKTNV-1" vertex="1">
          <mxGeometry x="1185" y="340" width="40" height="30" as="geometry" />
        </mxCell>
        <mxCell id="bx4wuyogf3lP6zrm6x-j-21" value="" style="edgeStyle=orthogonalEdgeStyle;rounded=0;html=1;jettySize=auto;orthogonalLoop=1;fontSize=11;endArrow=block;endFill=0;endSize=8;strokeWidth=1;shadow=0;labelBackgroundColor=none;exitX=0.5;exitY=0;exitDx=0;exitDy=0;entryX=1;entryY=0.5;entryDx=0;entryDy=0;" parent="WIyWlLk6GJQsqaUBKTNV-1" source="bx4wuyogf3lP6zrm6x-j-17" target="bx4wuyogf3lP6zrm6x-j-8" edge="1">
          <mxGeometry x="-0.1304" y="20" relative="1" as="geometry">
            <mxPoint as="offset" />
            <mxPoint x="1385" y="160" as="targetPoint" />
            <mxPoint x="1325" y="400" as="sourcePoint" />
            <Array as="points" />
          </mxGeometry>
        </mxCell>
        <mxCell id="bx4wuyogf3lP6zrm6x-j-22" value="否" style="text;html=1;align=center;verticalAlign=middle;resizable=0;points=[];autosize=1;strokeColor=none;fillColor=none;" parent="WIyWlLk6GJQsqaUBKTNV-1" vertex="1">
          <mxGeometry x="1095" y="230" width="40" height="30" as="geometry" />
        </mxCell>
      </root>
    </mxGraphModel>
  </diagram>
</mxfile>
